<mxfile host="app.diagrams.net" modified="2022-01-18T05:59:03.981Z" agent="5.0 (Macintosh)" etag="HYzfeIvBhlSp5R4-R-go" version="16.2.6" type="github">
  <diagram id="KJUW9N4FnG8-xS5-VwTA" name="Page-1">
    <mxGraphModel dx="1233" dy="809" grid="1" gridSize="10" guides="1" tooltips="1" connect="1" arrows="1" fold="1" page="1" pageScale="1" pageWidth="1920" pageHeight="1200" math="0" shadow="0">
      <root>
        <mxCell id="0" />
        <mxCell id="1" parent="0" />
      </root>
    </mxGraphModel>
  </diagram>
</mxfile>
